<?xml version="1.0" standalone="no"?>
<!DOCTYPE svg PUBLIC "-//W3C//DTD SVG 20010904//EN"
 "http://www.w3.org/TR/2001/REC-SVG-20010904/DTD/svg10.dtd">
<svg version="1.0" xmlns="http://www.w3.org/2000/svg"
 width="512.000000pt" height="512.000000pt" viewBox="0 0 512.000000 512.000000"
 preserveAspectRatio="xMidYMid meet">

<g transform="translate(0.000000,512.000000) scale(0.100000,-0.100000)"
fill="#000000" stroke="none">
<path d="M361 4799 c-172 -34 -318 -182 -351 -358 -14 -73 -14 -1889 0 -1962
34 -180 179 -325 359 -359 30 -5 94 -10 142 -10 l89 0 0 -241 c0 -227 1 -243
21 -279 24 -42 82 -80 123 -80 47 0 86 23 424 249 l332 221 0 -324 c0 -178 5
-347 10 -377 34 -180 179 -325 359 -359 34 -6 336 -10 805 -10 l751 0 429
-286 c237 -158 445 -293 463 -300 18 -8 44 -14 59 -14 41 0 99 38 123 80 20
36 21 52 21 279 l0 241 89 0 c48 0 112 5 142 10 180 34 325 179 359 359 14 73
14 1889 0 1962 -34 180 -179 325 -359 359 -32 6 -268 10 -592 10 l-539 0 0
389 c0 222 -4 411 -10 442 -34 180 -179 325 -359 359 -67 12 -2825 12 -2890
-1z m2879 -309 c26 -13 47 -34 60 -60 20 -38 20 -57 20 -970 0 -913 0 -932
-20 -970 -13 -26 -34 -47 -60 -60 -38 -20 -57 -20 -825 -20 -644 0 -792 -2
-819 -14 -18 -7 -182 -113 -364 -235 l-332 -221 0 175 c0 205 -10 239 -80 275
-35 18 -59 20 -220 20 -210 0 -244 10 -280 80 -20 38 -20 57 -20 970 0 913 0
932 20 970 12 24 35 47 58 59 36 20 63 20 1430 21 1377 0 1393 0 1432 -20z
m1500 -1200 c26 -13 47 -34 60 -60 20 -38 20 -57 20 -970 0 -913 0 -932 -20
-970 -36 -70 -70 -80 -280 -80 -161 0 -185 -2 -220 -20 -70 -36 -80 -70 -80
-275 l0 -175 -332 221 c-182 122 -346 228 -364 235 -27 12 -175 14 -819 14
-768 0 -787 0 -825 20 -26 13 -47 34 -60 60 -19 37 -20 58 -20 430 l0 390 699
0 c433 0 719 4 752 10 180 34 325 179 359 359 6 31 10 220 10 442 l0 389 540
0 c522 0 542 -1 580 -20z"/>
<path d="M678 3889 c-43 -22 -78 -81 -78 -129 0 -50 35 -107 80 -130 39 -20
57 -20 1130 -20 1073 0 1091 0 1130 20 45 23 80 80 80 130 0 50 -35 107 -80
130 -39 20 -56 20 -1132 20 -1068 -1 -1094 -1 -1130 -21z"/>
<path d="M678 3289 c-43 -22 -78 -81 -78 -129 0 -50 35 -107 80 -130 38 -19
58 -20 670 -20 612 0 632 1 670 20 45 23 80 80 80 130 0 50 -35 107 -80 130
-38 19 -57 20 -672 20 -610 -1 -634 -2 -670 -21z"/>
</g>
</svg>
